<?xml version="1.0" encoding="UTF-8" standalone="no"?>
<!-- Created with Inkscape (http://www.inkscape.org/) -->

<svg
   xmlns:ns0="http://www.iki.fi/pav/software/textext/"
   xmlns:dc="http://purl.org/dc/elements/1.1/"
   xmlns:cc="http://creativecommons.org/ns#"
   xmlns:rdf="http://www.w3.org/1999/02/22-rdf-syntax-ns#"
   xmlns:svg="http://www.w3.org/2000/svg"
   xmlns="http://www.w3.org/2000/svg"
   xmlns:sodipodi="http://sodipodi.sourceforge.net/DTD/sodipodi-0.dtd"
   xmlns:inkscape="http://www.inkscape.org/namespaces/inkscape"
   width="744.09448819"
   height="1052.3622047"
   id="svg3269"
   version="1.1"
   inkscape:version="0.48.2 r9819"
   sodipodi:docname="opamp.svg">
  <sodipodi:namedview
     id="base"
     pagecolor="#ffffff"
     bordercolor="#666666"
     borderopacity="1.0"
     inkscape:pageopacity="0.0"
     inkscape:pageshadow="2"
     inkscape:zoom="3.959798"
     inkscape:cx="314.83146"
     inkscape:cy="579.94419"
     inkscape:document-units="px"
     inkscape:current-layer="g5275"
     showgrid="true"
     inkscape:window-width="1366"
     inkscape:window-height="706"
     inkscape:window-x="-8"
     inkscape:window-y="-8"
     inkscape:window-maximized="1">
    <inkscape:grid
       type="xygrid"
       id="grid3306" />
  </sodipodi:namedview>
  <defs
     id="defs3271" />
  <metadata
     id="metadata3274">
    <rdf:RDF>
      <cc:Work
         rdf:about="">
        <dc:format>image/svg+xml</dc:format>
        <dc:type
           rdf:resource="http://purl.org/dc/dcmitype/StillImage" />
        <dc:title />
      </cc:Work>
    </rdf:RDF>
  </metadata>
  <g
     inkscape:label="Layer 1"
     inkscape:groupmode="layer"
     id="layer1">
    <g
       id="g5275"
       transform="translate(397.16602,484.10483)">
      <path
         inkscape:connector-curvature="0"
         style="fill:none;stroke:#000000;stroke-width:1;stroke-linecap:round;stroke-linejoin:round;stroke-miterlimit:4;stroke-dasharray:none"
         d="m -50.49454,-45.30335 0,55.6821 48.222117,-27.84105 -48.222117,-27.84105 z"
         id="_42099168"
         sodipodi:nodetypes="cccc" />
      <path
         inkscape:connector-curvature="0"
         transform="translate(10.583979,-167.05188)"
         id="path5179"
         d="m -61.078517,140.30923 -31.671482,0"
         style="fill:none;stroke:#000000;stroke-width:1px;stroke-linecap:square;stroke-linejoin:round;stroke-opacity:1"
         sodipodi:nodetypes="cc" />
      <path
         inkscape:connector-curvature="0"
         style="fill:none;stroke:#000000;stroke-width:1px;stroke-linecap:square;stroke-linejoin:round;stroke-opacity:1"
         d="m -51.16602,-7.7426474 -31,0"
         id="path5181"
         sodipodi:nodetypes="cc" />
      <path
         inkscape:connector-curvature="0"
         style="fill:none;stroke:#000000;stroke-width:1px;stroke-linecap:square;stroke-linejoin:round;stroke-opacity:1"
         d="m -26.383481,-31.382825 2e-6,-16.671482"
         id="path5209" />
      <path
         inkscape:connector-curvature="0"
         id="path5215"
         d="m -26.383481,13.129706 2e-6,-16.6714825"
         style="fill:none;stroke:#000000;stroke-width:1px;stroke-linecap:square;stroke-linejoin:round;stroke-opacity:1" />
      <path
         inkscape:connector-curvature="0"
         id="path5217"
         d="m 14.399058,-17.4623 -16.671483,0"
         style="fill:none;stroke:#000000;stroke-width:1px;stroke-linecap:square;stroke-linejoin:round;stroke-opacity:1" />
      <g
         transform="matrix(1,0,0,-1,-1.9445437,-34.707552)"
         id="g5269">
        <g
           id="g5265"
           transform="translate(45.25,-2.72226)">
          <path
             inkscape:connector-curvature="0"
             id="path13824-2"
             d="m -84.210381,-24.020385 -5.41128,0"
             style="fill:none;stroke:#000000;stroke-width:1;stroke-linecap:round;stroke-linejoin:round;stroke-miterlimit:4;stroke-opacity:1;stroke-dasharray:none" />
          <path
             inkscape:connector-curvature="0"
             id="path13826-1"
             d="m -86.916031,-21.298115 0,-5.44453"
             style="fill:none;stroke:#000000;stroke-width:1;stroke-linecap:round;stroke-linejoin:round;stroke-miterlimit:4;stroke-opacity:1;stroke-dasharray:none" />
        </g>
        <path
           inkscape:connector-curvature="0"
           style="fill:none;stroke:#000000;stroke-width:1;stroke-linecap:round;stroke-linejoin:round;stroke-miterlimit:4;stroke-opacity:1;stroke-dasharray:none"
           d="m -44.371661,-8.18195 5.41128,0"
           id="path13828-3" />
      </g>
      <g
         ns0:preamble=""
         ns0:text="$v_\\mathrm{in}^{-}$"
         word-spacing="normal"
         letter-spacing="normal"
         font-size-adjust="none"
         font-stretch="normal"
         font-weight="normal"
         font-variant="normal"
         font-style="normal"
         stroke-miterlimit="10.433"
         xml:space="preserve"
         transform="matrix(1.5,0,0,-1.5,-438.74602,1032.2074)"
         id="content"
         style="font-style:normal;font-variant:normal;font-weight:normal;font-stretch:normal;letter-spacing:normal;word-spacing:normal;text-anchor:start;fill:none;stroke:#000000;stroke-linecap:butt;stroke-linejoin:miter;stroke-miterlimit:10.43299961;stroke-opacity:1;stroke-dasharray:none;stroke-dashoffset:0">
<path
   id="path3639"
   d="m 228.1,710.83 0,0.02 0,0.03 0,0.02 -0.01,0.02 0,0.03 0,0.02 0,0.02 0,0.02 -0.01,0.04 -0.01,0.04 -0.01,0.04 -0.01,0.03 -0.01,0.04 -0.01,0.03 -0.01,0.03 -0.01,0.02 -0.02,0.03 -0.01,0.02 -0.02,0.03 -0.01,0.02 -0.02,0.02 -0.02,0.01 -0.02,0.02 -0.01,0.02 -0.02,0.01 -0.02,0.01 -0.02,0.01 -0.02,0.01 -0.02,0.01 -0.01,0.01 -0.02,0 -0.02,0.01 -0.02,0 -0.02,0 -0.01,0 -0.02,0 c -0.25,0 -0.49,-0.25 -0.49,-0.47 0,-0.13 0.05,-0.19 0.16,-0.3 0.21,-0.2 0.34,-0.46 0.34,-0.82 0,-0.42 -0.61,-2.7 -1.78,-2.7 -0.5,0 -0.73,0.35 -0.73,0.87 0,0.56 0.27,1.28 0.58,2.11 0.06,0.17 0.11,0.31 0.11,0.5 0,0.45 -0.31,0.81 -0.81,0.81 -0.94,0 -1.32,-1.44 -1.32,-1.53 0,-0.1 0.1,-0.1 0.12,-0.1 0.1,0 0.11,0.02 0.16,0.18 0.29,1.01 0.72,1.23 1.01,1.23 0.08,0 0.25,0 0.25,-0.31 0,-0.25 -0.1,-0.52 -0.17,-0.7 -0.44,-1.15 -0.57,-1.61 -0.57,-2.04 0,-1.08 0.88,-1.23 1.33,-1.23 1.68,0 2.25,3.29 2.25,3.81 z"
   inkscape:connector-curvature="0"
   style="fill:#000000;stroke-width:0" />
<path
   id="path3641"
   d="m 233.8,712.96 0.01,0 0.01,0 0.01,0 0.01,0 0.03,0 0.01,0 0.01,0 0.01,0 0.01,0 0.02,0 0.01,0.01 0.01,0 0.01,0 0.01,0.01 0.01,0 0.01,0 0.01,0.01 0.01,0 0.01,0.01 0.01,0.01 0.01,0 0,0.01 0.01,0 0,0.01 0,0 0.01,0.01 0,0 0,0.01 0.01,0 0,0.01 0,0 0,0.01 0,0.01 0,0 0.01,0.01 0,0.01 0,0 0,0.01 0,0.01 0,0.01 c 0,0.17 -0.16,0.17 -0.28,0.17 h -4.15 c -0.11,0 -0.28,0 -0.28,-0.17 0,-0.17 0.16,-0.17 0.28,-0.17 z"
   inkscape:connector-curvature="0"
   style="fill:#000000;stroke-width:0" />
<path
   id="path3643"
   d="m 229.73,708.56 0,0.02 0,0.02 0,0.02 -0.01,0.02 0,0.02 -0.01,0.01 0,0.02 -0.01,0.02 -0.01,0.02 -0.01,0.01 0,0.02 -0.01,0.02 -0.02,0.01 -0.01,0.02 -0.01,0.01 -0.01,0.02 -0.02,0.01 -0.01,0.01 -0.02,0.02 -0.01,0.01 -0.02,0.01 -0.01,0.01 -0.02,0.01 -0.02,0.01 -0.02,0 -0.02,0.01 -0.02,0.01 -0.02,0 -0.02,0 -0.02,0.01 -0.02,0 -0.02,0 c -0.21,0 -0.4,-0.17 -0.4,-0.4 0,-0.25 0.2,-0.4 0.4,-0.4 0.22,0 0.4,0.17 0.4,0.4 z"
   inkscape:connector-curvature="0"
   style="fill:#000000;stroke-width:0" />
<path
   id="path3645"
   d="m 228.67,707.26 v -0.25 c 0.44,0 0.5,-0.04 0.5,-0.38 v -1.81 c 0,-0.3 -0.07,-0.3 -0.52,-0.3 v -0.25 c 0.01,0 0.5,0.03 0.78,0.03 0.25,0 0.5,-0.01 0.74,-0.03 v 0.25 c -0.41,0 -0.47,0 -0.47,0.29 v 2.53 z"
   inkscape:connector-curvature="0"
   style="fill:#000000;stroke-width:0" />
<path
   id="path3647"
   d="m 234.1,706.38 0,0.06 0,0.05 -0.01,0.05 0,0.05 -0.01,0.05 -0.01,0.05 -0.01,0.05 -0.02,0.04 -0.01,0.05 -0.02,0.04 -0.02,0.04 -0.02,0.04 -0.02,0.04 -0.03,0.03 -0.03,0.03 -0.03,0.04 -0.03,0.03 -0.04,0.02 -0.03,0.03 -0.04,0.02 -0.05,0.03 -0.04,0.02 -0.05,0.02 -0.04,0.01 -0.06,0.02 -0.05,0.01 -0.05,0.01 -0.06,0.01 -0.06,0.01 -0.07,0 -0.06,0.01 -0.07,0 c -0.57,0 -0.94,-0.31 -1.14,-0.68 h 0 v 0.68 l -1.03,-0.08 v -0.25 c 0.47,0 0.52,-0.05 0.52,-0.39 v -1.8 c 0,-0.3 -0.06,-0.3 -0.52,-0.3 v -0.25 c 0.02,0 0.5,0.03 0.8,0.03 0.25,0 0.74,-0.02 0.8,-0.03 v 0.25 c -0.45,0 -0.53,0 -0.53,0.3 v 1.25 c 0,0.73 0.58,1.07 1.04,1.07 0.49,0 0.55,-0.38 0.55,-0.73 v -1.59 c 0,-0.3 -0.07,-0.3 -0.52,-0.3 v -0.25 c 0.01,0 0.5,0.03 0.79,0.03 0.26,0 0.74,-0.02 0.81,-0.03 v 0.25 c -0.46,0 -0.53,0 -0.53,0.3 z"
   inkscape:connector-curvature="0"
   style="fill:#000000;stroke-width:0" />
</g>      <g
         style="font-style:normal;font-variant:normal;font-weight:normal;font-stretch:normal;letter-spacing:normal;word-spacing:normal;text-anchor:start;fill:none;stroke:#000000;stroke-linecap:butt;stroke-linejoin:miter;stroke-miterlimit:10.43299961;stroke-opacity:1;stroke-dasharray:none;stroke-dashoffset:0"
         id="g3701"
         transform="matrix(1.5,0,0,-1.5,-438.30102,1060.7724)"
         xml:space="preserve"
         stroke-miterlimit="10.433"
         font-style="normal"
         font-variant="normal"
         font-weight="normal"
         font-stretch="normal"
         font-size-adjust="none"
         letter-spacing="normal"
         word-spacing="normal"
         ns0:text="$v_\\mathrm{in}^+$"
         ns0:preamble="">
<path
   style="fill:#000000;stroke-width:0"
   inkscape:connector-curvature="0"
   d="m 228.1,710.83 0,0.02 0,0.03 0,0.02 -0.01,0.02 0,0.03 0,0.02 0,0.02 0,0.02 -0.01,0.04 -0.01,0.04 -0.01,0.04 -0.01,0.03 -0.01,0.04 -0.01,0.03 -0.01,0.03 -0.01,0.02 -0.02,0.03 -0.01,0.02 -0.02,0.03 -0.01,0.02 -0.02,0.02 -0.02,0.01 -0.02,0.02 -0.01,0.02 -0.02,0.01 -0.02,0.01 -0.02,0.01 -0.02,0.01 -0.02,0.01 -0.01,0.01 -0.02,0 -0.02,0.01 -0.02,0 -0.02,0 -0.01,0 -0.02,0 c -0.25,0 -0.49,-0.25 -0.49,-0.47 0,-0.13 0.05,-0.19 0.16,-0.3 0.21,-0.2 0.34,-0.46 0.34,-0.82 0,-0.42 -0.61,-2.7 -1.78,-2.7 -0.5,0 -0.73,0.35 -0.73,0.87 0,0.56 0.27,1.28 0.58,2.11 0.06,0.17 0.11,0.31 0.11,0.5 0,0.45 -0.31,0.81 -0.81,0.81 -0.94,0 -1.32,-1.44 -1.32,-1.53 0,-0.1 0.1,-0.1 0.12,-0.1 0.1,0 0.11,0.02 0.16,0.18 0.29,1.01 0.72,1.23 1.01,1.23 0.08,0 0.25,0 0.25,-0.31 0,-0.25 -0.1,-0.52 -0.17,-0.7 -0.44,-1.15 -0.57,-1.61 -0.57,-2.04 0,-1.08 0.88,-1.23 1.33,-1.23 1.68,0 2.25,3.29 2.25,3.81 z"
   id="path3703" />
<path
   style="fill:#000000;stroke-width:0"
   inkscape:connector-curvature="0"
   d="m 231.84,712.96 h 2.14 c 0.09,0 0.25,0 0.25,0.17 0,0.17 -0.16,0.17 -0.25,0.17 h -2.14 v 2.13 c 0,0.09 0,0.26 -0.16,0.26 -0.18,0 -0.18,-0.16 -0.18,-0.26 v -2.13 h -2.14 c -0.09,0 -0.25,0 -0.25,-0.17 0,-0.17 0.16,-0.17 0.25,-0.17 h 2.14 v -2.14 c 0,-0.09 0,-0.25 0.17,-0.25 0.17,0 0.17,0.16 0.17,0.25 z"
   id="path3705" />
<path
   style="fill:#000000;stroke-width:0"
   inkscape:connector-curvature="0"
   d="m 229.73,708.56 0,0.02 0,0.02 0,0.02 -0.01,0.02 0,0.02 -0.01,0.01 0,0.02 -0.01,0.02 -0.01,0.02 -0.01,0.01 0,0.02 -0.01,0.02 -0.02,0.01 -0.01,0.02 -0.01,0.01 -0.01,0.02 -0.02,0.01 -0.01,0.01 -0.02,0.02 -0.01,0.01 -0.02,0.01 -0.01,0.01 -0.02,0.01 -0.02,0.01 -0.02,0 -0.02,0.01 -0.02,0.01 -0.02,0 -0.02,0 -0.02,0.01 -0.02,0 -0.02,0 c -0.21,0 -0.4,-0.17 -0.4,-0.4 0,-0.25 0.2,-0.4 0.4,-0.4 0.22,0 0.4,0.17 0.4,0.4 z"
   id="path3707" />
<path
   style="fill:#000000;stroke-width:0"
   inkscape:connector-curvature="0"
   d="m 228.67,707.26 v -0.25 c 0.44,0 0.5,-0.04 0.5,-0.38 v -1.81 c 0,-0.3 -0.07,-0.3 -0.52,-0.3 v -0.25 c 0.01,0 0.5,0.03 0.78,0.03 0.25,0 0.5,-0.01 0.74,-0.03 v 0.25 c -0.41,0 -0.47,0 -0.47,0.29 v 2.53 z"
   id="path3709" />
<path
   style="fill:#000000;stroke-width:0"
   inkscape:connector-curvature="0"
   d="m 234.1,706.38 0,0.06 0,0.05 -0.01,0.05 0,0.05 -0.01,0.05 -0.01,0.05 -0.01,0.05 -0.02,0.04 -0.01,0.05 -0.02,0.04 -0.02,0.04 -0.02,0.04 -0.02,0.04 -0.03,0.03 -0.03,0.03 -0.03,0.04 -0.03,0.03 -0.04,0.02 -0.03,0.03 -0.04,0.02 -0.05,0.03 -0.04,0.02 -0.05,0.02 -0.04,0.01 -0.06,0.02 -0.05,0.01 -0.05,0.01 -0.06,0.01 -0.06,0.01 -0.07,0 -0.06,0.01 -0.07,0 c -0.57,0 -0.94,-0.31 -1.14,-0.68 h 0 v 0.68 l -1.03,-0.08 v -0.25 c 0.47,0 0.52,-0.05 0.52,-0.39 v -1.8 c 0,-0.3 -0.06,-0.3 -0.52,-0.3 v -0.25 c 0.02,0 0.5,0.03 0.8,0.03 0.25,0 0.74,-0.02 0.8,-0.03 v 0.25 c -0.45,0 -0.53,0 -0.53,0.3 v 1.25 c 0,0.73 0.58,1.07 1.04,1.07 0.49,0 0.55,-0.38 0.55,-0.73 v -1.59 c 0,-0.3 -0.07,-0.3 -0.52,-0.3 v -0.25 c 0.01,0 0.5,0.03 0.79,0.03 0.26,0 0.74,-0.02 0.81,-0.03 v 0.25 c -0.46,0 -0.53,0 -0.53,0.3 z"
   id="path3711" />
</g>      <g
         ns0:preamble=""
         ns0:text="$+V_{cc}$"
         word-spacing="normal"
         letter-spacing="normal"
         font-size-adjust="none"
         font-stretch="normal"
         font-weight="normal"
         font-variant="normal"
         font-style="normal"
         stroke-miterlimit="10.433"
         xml:space="preserve"
         transform="matrix(1.5,0,0,-1.5,-378.32602,1001.3074)"
         id="g3771"
         style="font-style:normal;font-variant:normal;font-weight:normal;font-stretch:normal;letter-spacing:normal;word-spacing:normal;text-anchor:start;fill:none;stroke:#000000;stroke-linecap:butt;stroke-linejoin:miter;stroke-miterlimit:10.43299961;stroke-opacity:1;stroke-dasharray:none;stroke-dashoffset:0">
<path
   id="path3773"
   d="m 227.51,709.41 h 2.78 c 0.14,0 0.33,0 0.33,0.2 0,0.2 -0.19,0.2 -0.33,0.2 h -2.78 v 2.79 c 0,0.14 0,0.33 -0.2,0.33 -0.2,0 -0.2,-0.19 -0.2,-0.33 v -2.79 h -2.79 c -0.14,0 -0.33,0 -0.33,-0.2 0,-0.2 0.19,-0.2 0.33,-0.2 h 2.79 v -2.78 c 0,-0.14 0,-0.33 0.2,-0.33 0.2,0 0.2,0.19 0.2,0.33 z"
   inkscape:connector-curvature="0"
   style="fill:#000000;stroke-width:0" />
<path
   id="path3775"
   d="m 237.44,712.79 0.05,0.07 0.04,0.06 0.05,0.07 0.04,0.06 0.05,0.05 0.04,0.05 0.04,0.05 0.04,0.04 0.05,0.04 0.04,0.04 0.04,0.03 0.04,0.04 0.04,0.02 0.04,0.03 0.04,0.02 0.04,0.02 0.04,0.02 0.04,0.02 0.04,0.02 0.04,0.01 0.04,0.01 0.04,0.01 0.03,0.01 0.04,0.01 0.04,0 0.03,0.01 0.08,0 0.07,0.01 0.07,0 c 0.12,0.01 0.13,0.18 0.13,0.19 0,0.08 -0.05,0.12 -0.13,0.12 -0.26,0 -0.55,-0.03 -0.82,-0.03 -0.33,0 -0.67,0.03 -0.99,0.03 -0.06,0 -0.19,0 -0.19,-0.19 0,-0.11 0.09,-0.12 0.16,-0.12 0.27,-0.02 0.46,-0.12 0.46,-0.32 0,-0.15 -0.15,-0.37 -0.15,-0.38 l -3.06,-4.86 -0.68,5.27 c 0,0.16 0.23,0.29 0.69,0.29 0.14,0 0.25,0 0.25,0.2 0,0.09 -0.08,0.11 -0.14,0.11 -0.4,0 -0.83,-0.03 -1.24,-0.03 -0.17,0 -0.36,0.01 -0.54,0.01 -0.18,0 -0.37,0.02 -0.54,0.02 -0.07,0 -0.19,0 -0.19,-0.19 0,-0.12 0.09,-0.12 0.25,-0.12 0.56,0 0.57,-0.09 0.6,-0.33 l 0.78,-6.14 c 0.03,-0.2 0.07,-0.23 0.2,-0.23 0.16,0 0.2,0.05 0.28,0.18 z"
   inkscape:connector-curvature="0"
   style="fill:#000000;stroke-width:0" />
<path
   id="path3777"
   d="m 240.04,708.29 -0.02,0 -0.02,-0.01 -0.02,0 -0.03,-0.01 -0.01,-0.01 -0.02,0 -0.02,-0.01 -0.02,-0.01 -0.02,-0.01 -0.01,-0.01 -0.02,-0.02 -0.01,-0.01 -0.01,-0.01 -0.02,-0.01 -0.01,-0.02 -0.01,-0.01 -0.01,-0.01 -0.01,-0.02 -0.01,-0.01 -0.01,-0.02 0,-0.01 -0.01,-0.02 -0.01,-0.01 0,-0.02 -0.01,-0.01 0,-0.02 -0.01,-0.01 0,-0.02 0,-0.01 0,-0.02 0,-0.01 0,-0.01 c 0,-0.19 0.14,-0.26 0.27,-0.26 0.15,0 0.4,0.11 0.4,0.44 0,0.48 -0.55,0.61 -0.92,0.61 -1.05,0 -2.02,-0.96 -2.02,-1.93 0,-0.6 0.42,-1.21 1.29,-1.21 1.18,0 1.73,0.69 1.73,0.79 0,0.04 -0.06,0.12 -0.12,0.12 -0.04,0 -0.06,-0.02 -0.11,-0.07 -0.54,-0.64 -1.36,-0.64 -1.48,-0.64 -0.5,0 -0.73,0.34 -0.73,0.77 0,0.2 0.1,0.96 0.46,1.44 0.27,0.34 0.63,0.53 0.98,0.53 0.09,0 0.43,-0.01 0.6,-0.21 z"
   inkscape:connector-curvature="0"
   style="fill:#000000;stroke-width:0" />
<path
   id="path3779"
   d="m 243.6,708.29 -0.02,0 -0.02,-0.01 -0.02,0 -0.03,-0.01 -0.01,-0.01 -0.02,0 -0.02,-0.01 -0.02,-0.01 -0.02,-0.01 -0.01,-0.01 -0.02,-0.02 -0.01,-0.01 -0.01,-0.01 -0.02,-0.01 -0.01,-0.02 -0.01,-0.01 -0.01,-0.01 -0.01,-0.02 -0.01,-0.01 -0.01,-0.02 0,-0.01 -0.01,-0.02 -0.01,-0.01 0,-0.02 -0.01,-0.01 0,-0.02 -0.01,-0.01 0,-0.02 0,-0.01 0,-0.02 0,-0.01 0,-0.01 c 0,-0.19 0.14,-0.26 0.27,-0.26 0.15,0 0.4,0.11 0.4,0.44 0,0.48 -0.55,0.61 -0.92,0.61 -1.05,0 -2.02,-0.96 -2.02,-1.93 0,-0.6 0.42,-1.21 1.29,-1.21 1.18,0 1.73,0.69 1.73,0.79 0,0.04 -0.06,0.12 -0.12,0.12 -0.04,0 -0.06,-0.02 -0.11,-0.07 -0.54,-0.64 -1.36,-0.64 -1.48,-0.64 -0.5,0 -0.73,0.34 -0.73,0.77 0,0.2 0.1,0.96 0.46,1.44 0.27,0.34 0.63,0.53 0.98,0.53 0.09,0 0.43,-0.01 0.6,-0.21 z"
   inkscape:connector-curvature="0"
   style="fill:#000000;stroke-width:0" />
</g>      <g
         style="font-style:normal;font-variant:normal;font-weight:normal;font-stretch:normal;letter-spacing:normal;word-spacing:normal;text-anchor:start;fill:none;stroke:#000000;stroke-linecap:butt;stroke-linejoin:miter;stroke-miterlimit:10.43299961;stroke-opacity:1;stroke-dasharray:none;stroke-dashoffset:0"
         id="g3849"
         transform="matrix(1.5,0,0,-1.5,-380.53102,1089.1374)"
         xml:space="preserve"
         stroke-miterlimit="10.433"
         font-style="normal"
         font-variant="normal"
         font-weight="normal"
         font-stretch="normal"
         font-size-adjust="none"
         letter-spacing="normal"
         word-spacing="normal"
         ns0:text="$-V_{cc}$"
         ns0:preamble="">
<path
   style="fill:#000000;stroke-width:0"
   inkscape:connector-curvature="0"
   d="m 230,709.41 0.03,0 0.03,0 0.04,0.01 0.01,0 0.02,0 0.01,0 0.02,0 0.01,0 0.02,0 0.01,0.01 0.01,0 0.02,0 0.01,0.01 0.01,0 0.01,0.01 0.01,0.01 0.01,0 0.01,0.01 0.01,0.01 0.01,0.01 0.01,0.01 0,0 0.01,0.01 0,0 0,0.01 0.01,0.01 0,0 0,0.01 0,0.01 0,0 0.01,0.01 0,0.01 0,0.01 0,0.01 0,0 0,0.01 0,0.01 c 0,0.2 -0.18,0.2 -0.35,0.2 h -5.39 c -0.17,0 -0.35,0 -0.35,-0.2 0,-0.2 0.18,-0.2 0.35,-0.2 z"
   id="path3851" />
<path
   style="fill:#000000;stroke-width:0"
   inkscape:connector-curvature="0"
   d="m 237.44,712.79 0.05,0.07 0.04,0.06 0.05,0.07 0.04,0.06 0.05,0.05 0.04,0.05 0.04,0.05 0.04,0.04 0.05,0.04 0.04,0.04 0.04,0.03 0.04,0.04 0.04,0.02 0.04,0.03 0.04,0.02 0.04,0.02 0.04,0.02 0.04,0.02 0.04,0.02 0.04,0.01 0.04,0.01 0.04,0.01 0.03,0.01 0.04,0.01 0.04,0 0.03,0.01 0.08,0 0.07,0.01 0.07,0 c 0.12,0.01 0.13,0.18 0.13,0.19 0,0.08 -0.05,0.12 -0.13,0.12 -0.26,0 -0.55,-0.03 -0.82,-0.03 -0.33,0 -0.67,0.03 -0.99,0.03 -0.06,0 -0.19,0 -0.19,-0.19 0,-0.11 0.09,-0.12 0.16,-0.12 0.27,-0.02 0.46,-0.12 0.46,-0.32 0,-0.15 -0.15,-0.37 -0.15,-0.38 l -3.06,-4.86 -0.68,5.27 c 0,0.16 0.23,0.29 0.69,0.29 0.14,0 0.25,0 0.25,0.2 0,0.09 -0.08,0.11 -0.14,0.11 -0.4,0 -0.83,-0.03 -1.24,-0.03 -0.17,0 -0.36,0.01 -0.54,0.01 -0.18,0 -0.37,0.02 -0.54,0.02 -0.07,0 -0.19,0 -0.19,-0.19 0,-0.12 0.09,-0.12 0.25,-0.12 0.56,0 0.57,-0.09 0.6,-0.33 l 0.78,-6.14 c 0.03,-0.2 0.07,-0.23 0.2,-0.23 0.16,0 0.2,0.05 0.28,0.18 z"
   id="path3853" />
<path
   style="fill:#000000;stroke-width:0"
   inkscape:connector-curvature="0"
   d="m 240.04,708.29 -0.02,0 -0.02,-0.01 -0.02,0 -0.03,-0.01 -0.01,-0.01 -0.02,0 -0.02,-0.01 -0.02,-0.01 -0.02,-0.01 -0.01,-0.01 -0.02,-0.02 -0.01,-0.01 -0.01,-0.01 -0.02,-0.01 -0.01,-0.02 -0.01,-0.01 -0.01,-0.01 -0.01,-0.02 -0.01,-0.01 -0.01,-0.02 0,-0.01 -0.01,-0.02 -0.01,-0.01 0,-0.02 -0.01,-0.01 0,-0.02 -0.01,-0.01 0,-0.02 0,-0.01 0,-0.02 0,-0.01 0,-0.01 c 0,-0.19 0.14,-0.26 0.27,-0.26 0.15,0 0.4,0.11 0.4,0.44 0,0.48 -0.55,0.61 -0.92,0.61 -1.05,0 -2.02,-0.96 -2.02,-1.93 0,-0.6 0.42,-1.21 1.29,-1.21 1.18,0 1.73,0.69 1.73,0.79 0,0.04 -0.06,0.12 -0.12,0.12 -0.04,0 -0.06,-0.02 -0.11,-0.07 -0.54,-0.64 -1.36,-0.64 -1.48,-0.64 -0.5,0 -0.73,0.34 -0.73,0.77 0,0.2 0.1,0.96 0.46,1.44 0.27,0.34 0.63,0.53 0.98,0.53 0.09,0 0.43,-0.01 0.6,-0.21 z"
   id="path3855" />
<path
   style="fill:#000000;stroke-width:0"
   inkscape:connector-curvature="0"
   d="m 243.6,708.29 -0.02,0 -0.02,-0.01 -0.02,0 -0.03,-0.01 -0.01,-0.01 -0.02,0 -0.02,-0.01 -0.02,-0.01 -0.02,-0.01 -0.01,-0.01 -0.02,-0.02 -0.01,-0.01 -0.01,-0.01 -0.02,-0.01 -0.01,-0.02 -0.01,-0.01 -0.01,-0.01 -0.01,-0.02 -0.01,-0.01 -0.01,-0.02 0,-0.01 -0.01,-0.02 -0.01,-0.01 0,-0.02 -0.01,-0.01 0,-0.02 -0.01,-0.01 0,-0.02 0,-0.01 0,-0.02 0,-0.01 0,-0.01 c 0,-0.19 0.14,-0.26 0.27,-0.26 0.15,0 0.4,0.11 0.4,0.44 0,0.48 -0.55,0.61 -0.92,0.61 -1.05,0 -2.02,-0.96 -2.02,-1.93 0,-0.6 0.42,-1.21 1.29,-1.21 1.18,0 1.73,0.69 1.73,0.79 0,0.04 -0.06,0.12 -0.12,0.12 -0.04,0 -0.06,-0.02 -0.11,-0.07 -0.54,-0.64 -1.36,-0.64 -1.48,-0.64 -0.5,0 -0.73,0.34 -0.73,0.77 0,0.2 0.1,0.96 0.46,1.44 0.27,0.34 0.63,0.53 0.98,0.53 0.09,0 0.43,-0.01 0.6,-0.21 z"
   id="path3857" />
</g>      <g
         ns0:preamble=""
         ns0:text="$v_\\mathrm{out}$"
         word-spacing="normal"
         letter-spacing="normal"
         font-size-adjust="none"
         font-stretch="normal"
         font-weight="normal"
         font-variant="normal"
         font-style="normal"
         stroke-miterlimit="10.433"
         xml:space="preserve"
         transform="matrix(1.5,0,0,-1.5,-313.67102,1045.1524)"
         id="g3937"
         style="font-style:normal;font-variant:normal;font-weight:normal;font-stretch:normal;letter-spacing:normal;word-spacing:normal;text-anchor:start;fill:none;stroke:#000000;stroke-linecap:butt;stroke-linejoin:miter;stroke-miterlimit:10.43299961;stroke-opacity:1;stroke-dasharray:none;stroke-dashoffset:0">
<path
   id="path3939"
   d="m 228.1,710.83 0,0.02 0,0.03 0,0.02 -0.01,0.02 0,0.03 0,0.02 0,0.02 0,0.02 -0.01,0.04 -0.01,0.04 -0.01,0.04 -0.01,0.03 -0.01,0.04 -0.01,0.03 -0.01,0.03 -0.01,0.02 -0.02,0.03 -0.01,0.02 -0.02,0.03 -0.01,0.02 -0.02,0.02 -0.02,0.01 -0.02,0.02 -0.01,0.02 -0.02,0.01 -0.02,0.01 -0.02,0.01 -0.02,0.01 -0.02,0.01 -0.01,0.01 -0.02,0 -0.02,0.01 -0.02,0 -0.02,0 -0.01,0 -0.02,0 c -0.25,0 -0.49,-0.25 -0.49,-0.47 0,-0.13 0.05,-0.19 0.16,-0.3 0.21,-0.2 0.34,-0.46 0.34,-0.82 0,-0.42 -0.61,-2.7 -1.78,-2.7 -0.5,0 -0.73,0.35 -0.73,0.87 0,0.56 0.27,1.28 0.58,2.11 0.06,0.17 0.11,0.31 0.11,0.5 0,0.45 -0.31,0.81 -0.81,0.81 -0.94,0 -1.32,-1.44 -1.32,-1.53 0,-0.1 0.1,-0.1 0.12,-0.1 0.1,0 0.11,0.02 0.16,0.18 0.29,1.01 0.72,1.23 1.01,1.23 0.08,0 0.25,0 0.25,-0.31 0,-0.25 -0.1,-0.52 -0.17,-0.7 -0.44,-1.15 -0.57,-1.61 -0.57,-2.04 0,-1.08 0.88,-1.23 1.33,-1.23 1.68,0 2.25,3.29 2.25,3.81 z"
   inkscape:connector-curvature="0"
   style="fill:#000000;stroke-width:0" />
<path
   id="path3941"
   d="m 231.95,707.11 -0.01,0.08 0,0.08 -0.01,0.08 -0.02,0.08 -0.02,0.08 -0.02,0.07 -0.03,0.08 -0.03,0.07 -0.03,0.07 -0.04,0.07 -0.04,0.07 -0.04,0.07 -0.05,0.06 -0.05,0.06 -0.05,0.06 -0.06,0.06 -0.06,0.05 -0.06,0.05 -0.06,0.05 -0.07,0.05 -0.07,0.04 -0.07,0.04 -0.07,0.04 -0.08,0.03 -0.08,0.03 -0.08,0.03 -0.08,0.02 -0.08,0.02 -0.09,0.01 -0.08,0.01 -0.09,0.01 -0.09,0 v -0.19 c 0.41,0 0.7,-0.2 0.86,-0.41 0.19,-0.27 0.21,-0.62 0.21,-0.96 0,-0.33 -0.02,-0.7 -0.22,-0.98 -0.19,-0.27 -0.51,-0.41 -0.85,-0.41 h 0 c -0.26,0 -0.64,0.09 -0.86,0.43 -0.19,0.28 -0.21,0.64 -0.21,0.96 0,0.3 0,0.71 0.25,1.01 0.17,0.21 0.46,0.36 0.82,0.36 v 0.19 c -0.96,0 -1.71,-0.75 -1.71,-1.62 0,-0.86 0.77,-1.55 1.71,-1.55 0.94,0 1.71,0.69 1.71,1.55 z"
   inkscape:connector-curvature="0"
   style="fill:#000000;stroke-width:0" />
<path
   id="path3943"
   d="m 234.75,708.62 v -0.25 c 0.46,0 0.52,-0.05 0.52,-0.39 v -1.19 c 0,-0.61 -0.4,-1.03 -0.93,-1.03 -0.63,0 -0.66,0.29 -0.66,0.65 v 2.29 l -1.07,-0.08 v -0.25 c 0.52,0 0.52,-0.02 0.52,-0.64 v -1.04 c 0,-0.48 0,-1.13 1.16,-1.13 0.16,0 0.67,0 1,0.59 h 0.01 v -0.59 l 1.04,0.07 v 0.25 c -0.46,0 -0.52,0.05 -0.52,0.39 v 2.43 z"
   inkscape:connector-curvature="0"
   style="fill:#000000;stroke-width:0" />
<path
   id="path3945"
   d="m 238.03,708.38 h 1.09 v 0.25 h -1.09 v 1.28 h -0.23 c -0.01,-0.63 -0.3,-1.32 -0.96,-1.34 v -0.19 h 0.64 v -1.88 c 0,-0.78 0.59,-0.94 0.98,-0.94 0.46,0 0.78,0.4 0.78,0.95 v 0.38 h -0.23 v -0.38 c 0,-0.47 -0.22,-0.73 -0.5,-0.73 -0.48,0 -0.48,0.59 -0.48,0.71 z"
   inkscape:connector-curvature="0"
   style="fill:#000000;stroke-width:0" />
</g>      <text
         xml:space="preserve"
         style="font-size:40px;font-style:normal;font-weight:normal;line-height:125%;letter-spacing:0px;word-spacing:0px;fill:#000000;fill-opacity:1;stroke:none;font-family:Sans"
         x="-62.166019"
         y="-29.742647"
         id="text4758"
         sodipodi:linespacing="125%"><tspan
           sodipodi:role="line"
           id="tspan4760"
           x="-62.166019"
           y="-29.742647"
           style="font-size:8px;font-family:Times New Roman;-inkscape-font-specification:Times New Roman">(2)</tspan></text>
      <text
         xml:space="preserve"
         style="font-size:40px;font-style:normal;font-weight:normal;line-height:125%;letter-spacing:0px;word-spacing:0px;fill:#000000;fill-opacity:1;stroke:none;font-family:Sans"
         x="-62.166019"
         y="-11.742647"
         id="text4758-8"
         sodipodi:linespacing="125%"><tspan
           sodipodi:role="line"
           id="tspan4760-6"
           x="-62.166019"
           y="-11.742647"
           style="font-size:8px;font-family:Times New Roman;-inkscape-font-specification:Times New Roman">(3)</tspan></text>
      <text
         xml:space="preserve"
         style="font-size:40px;font-style:normal;font-weight:normal;line-height:125%;letter-spacing:0px;word-spacing:0px;fill:#000000;fill-opacity:1;stroke:none;font-family:Sans"
         x="-23.166019"
         y="-33.742645"
         id="text4758-86"
         sodipodi:linespacing="125%"><tspan
           sodipodi:role="line"
           id="tspan4760-0"
           x="-23.166019"
           y="-33.742645"
           style="font-size:8px;font-family:Times New Roman;-inkscape-font-specification:Times New Roman">(7)</tspan></text>
      <text
         xml:space="preserve"
         style="font-size:40px;font-style:normal;font-weight:normal;line-height:125%;letter-spacing:0px;word-spacing:0px;fill:#000000;fill-opacity:1;stroke:none;font-family:Sans"
         x="-22.166019"
         y="3.2573526"
         id="text4758-2"
         sodipodi:linespacing="125%"><tspan
           sodipodi:role="line"
           id="tspan4760-4"
           x="-22.166019"
           y="3.2573526"
           style="font-size:8px;font-family:Times New Roman;-inkscape-font-specification:Times New Roman">(4)</tspan></text>
      <text
         xml:space="preserve"
         style="font-size:40px;font-style:normal;font-weight:normal;line-height:125%;letter-spacing:0px;word-spacing:0px;fill:#000000;fill-opacity:1;stroke:none;font-family:Sans"
         x="-2.1660199"
         y="-21.742647"
         id="text4758-865"
         sodipodi:linespacing="125%"><tspan
           sodipodi:role="line"
           id="tspan4760-09"
           x="-2.1660199"
           y="-21.742647"
           style="font-size:8px;font-family:Times New Roman;-inkscape-font-specification:Times New Roman">(6)</tspan></text>
    </g>
  </g>
</svg>
