<?xml version="1.0" encoding="UTF-8" standalone="no"?>
<!-- Created with Inkscape (http://www.inkscape.org/) -->

<svg
   xmlns:dc="http://purl.org/dc/elements/1.1/"
   xmlns:cc="http://creativecommons.org/ns#"
   xmlns:rdf="http://www.w3.org/1999/02/22-rdf-syntax-ns#"
   xmlns:svg="http://www.w3.org/2000/svg"
   xmlns="http://www.w3.org/2000/svg"
   xmlns:sodipodi="http://sodipodi.sourceforge.net/DTD/sodipodi-0.dtd"
   xmlns:inkscape="http://www.inkscape.org/namespaces/inkscape"
   width="134.00006"
   height="202"
   id="svg2"
   sodipodi:version="0.32"
   inkscape:version="0.48.2 r9819"
   version="1.0"
   sodipodi:docname="flipflop.eps"
   inkscape:output_extension="org.inkscape.output.svg.inkscape">
  <defs
     id="defs4" />
  <sodipodi:namedview
     id="base"
     pagecolor="#ffffff"
     bordercolor="#666666"
     borderopacity="1.0"
     gridtolerance="50"
     guidetolerance="10"
     objecttolerance="50"
     inkscape:pageopacity="0.0"
     inkscape:pageshadow="2"
     inkscape:zoom="3.7574257"
     inkscape:cx="19.519353"
     inkscape:cy="105.20576"
     inkscape:document-units="px"
     inkscape:current-layer="layer1"
     width="125px"
     height="202px"
     showgrid="true"
     gridanglex="30px"
     gridanglez="30px"
     grid_units="px"
     inkscape:grid-points="false"
     showguides="true"
     inkscape:guide-bbox="true"
     inkscape:grid-bbox="false"
     inkscape:window-width="1920"
     inkscape:window-height="1018"
     inkscape:window-x="-8"
     inkscape:window-y="-8"
     inkscape:object-nodes="false"
     inkscape:object-paths="true"
     inkscape:window-maximized="1">
    <inkscape:grid
       id="GridFromPre046Settings"
       type="xygrid"
       originx="0px"
       originy="0px"
       spacingx="1px"
       spacingy="1px"
       color="#0000ff"
       empcolor="#0000ff"
       opacity="0.2"
       empopacity="0.4"
       empspacing="5" />
  </sodipodi:namedview>
  <metadata
     id="metadata7">
    <rdf:RDF>
      <cc:Work
         rdf:about="">
        <dc:format>image/svg+xml</dc:format>
        <dc:type
           rdf:resource="http://purl.org/dc/dcmitype/StillImage" />
        <dc:title></dc:title>
      </cc:Work>
    </rdf:RDF>
  </metadata>
  <g
     inkscape:label="Layer 1"
     inkscape:groupmode="layer"
     id="layer1"
     style="display:inline"
     transform="translate(-15.5,-17.594481)">
    <g
       id="g3780">
      <path
         inkscape:connector-curvature="0"
         d="m 113.5,81.428456 c -7.176,0 -19,2e-6 -19,2e-6 l 0,-25.998573 19,-0.0014 c 7.176,0 13,5.823999 13,12.999999 0,7.176001 -5.824,13 -13,13 z m 17,-12.999998 c 0,1.104 -0.896,2 -2,2 -1.104,0 -2,-0.896 -2,-2 0,-1.104 0.896,-2 2,-2 1.104,0 2,0.896 2,2 z m -3e-4,-1e-6 9.00006,0 M 85.5,61.928454 l 9.00006,0 M 85.5,74.928452 l 9.00006,0"
         style="fill:none;stroke:#000000;stroke-width:1.25;stroke-linecap:round;stroke-miterlimit:4;stroke-opacity:1;stroke-dashoffset:0;stroke-dasharray:none"
         id="path10208" />
      <path
         inkscape:connector-curvature="0"
         d="m 69.499647,131.42846 c 0,1.104 -0.896,2 -1.999999,2 -1.104,0 -2,-0.896 -2,-2 0,-1.10401 0.896,-2 2,-2 1.103999,0 1.999999,0.89599 1.999999,2 z m -23.499947,11 0,-22 18.985582,11 -18.985582,11 z m 23.5,-11 9.00006,0 m -41.50006,0 9.00006,0"
         style="fill:none;stroke:#000000;stroke-width:1.25;stroke-linecap:round;stroke-miterlimit:4;stroke-opacity:1;stroke-dashoffset:0;stroke-dasharray:none"
         id="path12162" />
      <path
         inkscape:connector-curvature="0"
         d="m 112.49976,137.92846 c -7.176,0 -19,1e-5 -19,1e-5 l 0,-25.99858 19,-0.001 c 7.176,0 13,5.824 13,13 0,7.17599 -5.824,12.99999 -13,12.99999 z m 17,-12.99999 c 0,1.104 -0.896,2 -2,2 -1.104,0 -2,-0.896 -2,-2 0,-1.104 0.896,-2 2,-2 1.104,0 2,0.896 2,2 z m -3e-4,0 9.00006,0 m -53.99976,-6.50001 9.00006,0 m -9.00006,13 9.00006,0"
         style="fill:none;stroke:#000000;stroke-width:1.25;stroke-linecap:round;stroke-miterlimit:4;stroke-opacity:1;stroke-dashoffset:0;display:inline;stroke-dasharray:none"
         id="path10208-1" />
      <path
         inkscape:connector-curvature="0"
         d="m 69.499887,61.928454 c 0,1.104 -0.896,2 -1.999999,2 -1.104,0 -2,-0.896 -2,-2 0,-1.104 0.896,-2 2,-2 1.103999,0 1.999999,0.896 1.999999,2 z m -23.499947,11 0,-22 18.985582,11 -18.985582,11 z m 23.5,-11 9.00006,0 m -41.50006,0 9.00006,0"
         style="fill:none;stroke:#000000;stroke-width:1.25;stroke-linecap:round;stroke-miterlimit:4;stroke-opacity:1;stroke-dashoffset:0;display:inline;stroke-dasharray:none"
         id="path12162-7" />
      <path
         inkscape:connector-curvature="0"
         id="path3031"
         d="m 139.49976,68.428457 0,15 -55,20.000013 0,15"
         style="fill:none;stroke:#000000;stroke-width:1.25;stroke-linecap:round;stroke-linejoin:miter;stroke-opacity:1;stroke-miterlimit:4;stroke-dasharray:none" />
      <path
         inkscape:connector-curvature="0"
         id="path3033"
         d="m 85.5,74.928452 0,15"
         style="fill:none;stroke:#000000;stroke-width:1.25;stroke-linecap:round;stroke-linejoin:miter;stroke-opacity:1;stroke-miterlimit:4;stroke-dasharray:none" />
      <path
         inkscape:connector-curvature="0"
         id="path3035"
         d="m 138.49952,124.92847 0,-15"
         style="fill:none;stroke:#000000;stroke-width:1.25;stroke-linecap:round;stroke-linejoin:miter;stroke-opacity:1;stroke-miterlimit:4;stroke-dasharray:none" />
      <path
         inkscape:connector-curvature="0"
         id="path3041"
         d="m 78.5,61.928454 5,0"
         style="fill:none;stroke:#000000;stroke-width:1.25;stroke-linecap:round;stroke-linejoin:miter;stroke-opacity:1;stroke-miterlimit:4;stroke-dasharray:none" />
      <path
         inkscape:connector-curvature="0"
         id="path3043"
         d="m 78.49976,131.42846 5,0"
         style="fill:none;stroke:#000000;stroke-width:1.25;stroke-linecap:round;stroke-linejoin:miter;stroke-opacity:1;stroke-miterlimit:4;stroke-dasharray:none" />
      <path
         inkscape:connector-curvature="0"
         id="path3045"
         d="m 83.095281,61.928454 2.661397,0"
         style="fill:none;stroke:#000000;stroke-width:1.25;stroke-linecap:round;stroke-linejoin:miter;stroke-opacity:1;stroke-miterlimit:4;stroke-dasharray:none" />
      <path
         inkscape:connector-curvature="0"
         id="path3047"
         d="m 82.962211,131.42846 1.996048,0"
         style="fill:none;stroke:#000000;stroke-width:1.25;stroke-linecap:round;stroke-linejoin:miter;stroke-opacity:1;stroke-miterlimit:4;stroke-dasharray:none" />
      <path
         inkscape:connector-curvature="0"
         id="path3049"
         d="m 139.49976,68.428457 20,0"
         style="fill:none;stroke:#000000;stroke-width:1.25;stroke-linecap:round;stroke-linejoin:miter;stroke-opacity:1;stroke-miterlimit:4;stroke-dasharray:none" />
      <path
         inkscape:connector-curvature="0"
         id="path3051"
         d="m 138.49952,124.92847 20,0"
         style="fill:none;stroke:#000000;stroke-width:1.25;stroke-linecap:round;stroke-linejoin:miter;stroke-opacity:1;stroke-miterlimit:4;stroke-dasharray:none" />
      <path
         transform="matrix(0.23529412,0,0,0.23529412,73.924578,61.567891)"
         d="m -155,2 c 0,2.7614237 -2.23858,5 -5,5 -2.76142,0 -5,-2.2385763 -5,-5 0,-2.76142375 2.23858,-5 5,-5 2.76142,0 5,2.23857625 5,5 z"
         sodipodi:ry="5"
         sodipodi:rx="5"
         sodipodi:cy="2"
         sodipodi:cx="-160"
         id="path3053"
         style="fill:#000000;fill-opacity:1;stroke:#000000;stroke-width:5.31249995000000030;stroke-miterlimit:4;stroke-opacity:1;stroke-dasharray:none;stroke-linecap:round"
         sodipodi:type="arc" />
      <path
         transform="matrix(0.23529412,0,0,0.23529412,73.500337,130.80373)"
         d="m -155,2 c 0,2.7614237 -2.23858,5 -5,5 -2.76142,0 -5,-2.2385763 -5,-5 0,-2.76142375 2.23858,-5 5,-5 2.76142,0 5,2.23857625 5,5 z"
         sodipodi:ry="5"
         sodipodi:rx="5"
         sodipodi:cy="2"
         sodipodi:cx="-160"
         id="path3053-48"
         style="fill:#000000;fill-opacity:1;stroke:#000000;stroke-width:5.31249995000000030;stroke-miterlimit:4;stroke-opacity:1;stroke-dasharray:none;display:inline;stroke-linecap:round"
         sodipodi:type="arc" />
      <path
         transform="matrix(0.23529412,0,0,0.23529412,196.73881,124.60873)"
         d="m -155,2 c 0,2.7614237 -2.23858,5 -5,5 -2.76142,0 -5,-2.2385763 -5,-5 0,-2.76142375 2.23858,-5 5,-5 2.76142,0 5,2.23857625 5,5 z"
         sodipodi:ry="5"
         sodipodi:rx="5"
         sodipodi:cy="2"
         sodipodi:cx="-160"
         id="path3053-8"
         style="fill:#000000;fill-opacity:1;stroke:#000000;stroke-width:5.31249995000000030;stroke-miterlimit:4;stroke-opacity:1;stroke-dasharray:none;display:inline;stroke-linecap:round"
         sodipodi:type="arc" />
      <path
         transform="matrix(0.23529412,0,0,0.23529412,197.74671,67.881458)"
         d="m -155,2 c 0,2.7614237 -2.23858,5 -5,5 -2.76142,0 -5,-2.2385763 -5,-5 0,-2.76142375 2.23858,-5 5,-5 2.76142,0 5,2.23857625 5,5 z"
         sodipodi:ry="5"
         sodipodi:rx="5"
         sodipodi:cy="2"
         sodipodi:cx="-160"
         id="path3053-2"
         style="fill:#000000;fill-opacity:1;stroke:#000000;stroke-width:5.31249995000000030;stroke-miterlimit:4;stroke-opacity:1;stroke-dasharray:none;display:inline;stroke-linecap:round"
         sodipodi:type="arc" />
      <path
         sodipodi:nodetypes="cc"
         inkscape:connector-curvature="0"
         id="path3889"
         d="M 138.49952,109.92847 110.5,99.594481"
         style="fill:none;stroke:#000000;stroke-width:1.25;stroke-linecap:round;stroke-linejoin:miter;stroke-opacity:1;stroke-miterlimit:4;stroke-dasharray:none" />
      <path
         transform="translate(15.5,17.594481)"
         inkscape:connector-curvature="0"
         id="path3891"
         d="m 70,72 15,5"
         style="fill:none;stroke:#000000;stroke-width:1.25;stroke-linecap:round;stroke-linejoin:miter;stroke-opacity:1;stroke-miterlimit:4;stroke-dasharray:none" />
      <path
         transform="translate(15.5,17.594481)"
         inkscape:connector-curvature="0"
         id="path3895"
         d="m 85,77 c 10,-5 10,5 10,5"
         style="fill:none;stroke:#000000;stroke-width:1.25;stroke-linecap:round;stroke-linejoin:miter;stroke-opacity:1;stroke-miterlimit:4;stroke-dasharray:none" />
      <text
         sodipodi:linespacing="125%"
         id="text3897"
         y="63.902779"
         x="25.879442"
         style="font-size:9px;font-style:italic;font-variant:normal;font-weight:normal;font-stretch:normal;text-align:start;line-height:125%;letter-spacing:0px;word-spacing:0px;writing-mode:lr-tb;text-anchor:start;fill:#000000;fill-opacity:1;stroke:none;font-family:Times New Roman;-inkscape-font-specification:'Times New Roman, Italic'"
         xml:space="preserve"><tspan
           y="63.902779"
           x="25.879442"
           id="tspan3899"
           sodipodi:role="line">S</tspan></text>
      <text
         sodipodi:linespacing="125%"
         id="text3897-4"
         y="133.29144"
         x="25.455202"
         style="font-size:9px;font-style:italic;font-variant:normal;font-weight:normal;font-stretch:normal;text-align:start;line-height:125%;letter-spacing:0px;word-spacing:0px;writing-mode:lr-tb;text-anchor:start;fill:#000000;fill-opacity:1;stroke:none;display:inline;font-family:Times New Roman;-inkscape-font-specification:'Times New Roman, Italic'"
         xml:space="preserve"><tspan
           y="133.29144"
           x="25.455202"
           id="tspan3899-5"
           sodipodi:role="line">R</tspan></text>
      <text
         sodipodi:linespacing="125%"
         id="text3897-5"
         y="70.975243"
         x="164.58958"
         style="font-size:9px;font-style:italic;font-variant:normal;font-weight:normal;font-stretch:normal;text-align:start;line-height:125%;letter-spacing:0px;word-spacing:0px;writing-mode:lr-tb;text-anchor:start;fill:#000000;fill-opacity:1;stroke:none;display:inline;font-family:Times New Roman;-inkscape-font-specification:'Times New Roman, Italic'"
         xml:space="preserve"><tspan
           y="70.975243"
           x="164.58958"
           id="tspan3899-1"
           sodipodi:role="line">Q</tspan></text>
      <text
         sodipodi:linespacing="125%"
         id="text3897-5-7"
         y="127.51543"
         x="163.67786"
         style="font-size:9px;font-style:italic;font-variant:normal;font-weight:normal;font-stretch:normal;text-align:start;line-height:125%;letter-spacing:0px;word-spacing:0px;writing-mode:lr-tb;text-anchor:start;fill:#000000;fill-opacity:1;stroke:none;display:inline;font-family:Times New Roman;-inkscape-font-specification:'Times New Roman, Italic'"
         xml:space="preserve"><tspan
           y="127.51543"
           x="163.67786"
           id="tspan3899-1-1"
           sodipodi:role="line">Q</tspan></text>
      <path
         inkscape:connector-curvature="0"
         id="path3964"
         d="m 165.5218,120.40698 5.5814,0"
         style="fill:none;stroke:#000000;stroke-width:0.5;stroke-linecap:round;stroke-linejoin:miter;stroke-miterlimit:4;stroke-opacity:1;stroke-dasharray:none" />
    </g>
  </g>
</svg>
